PathFileType	3	(X/Y/Z)	C:\Users\koon_\Desktop\
DataRate	CameraRate	NumFrames	NumMarkers	Units	OrigDataRate	OrigDataStartFrame	OrigNumFrames
100.0	100.0	4	27	mm	100.0	3329	3804	
Frame#	Time	get:LFHD			get:RFHD			get:LBHD			get:RBHD			get:C7			get:T10			get:CLAV			get:STRN			get:RBAK			get:LSHO			get:LUPA			get:LELB			get:LFRA			get:LWRA			get:LWRB			get:LFIN			get:RSHO			get:RUPA			get:RELB			get:RFRA			get:RWRA			get:RWRB			get:RFIN			get:LASI			get:RASI			get:LPSI			get:RPSI			
		X1	Y1	Z1	X2	Y2	Z2	X3	Y3	Z3	X4	Y4	Z4	X5	Y5	Z5	X6	Y6	Z6	X7	Y7	Z7	X8	Y8	Z8	X9	Y9	Z9	X10	Y10	Z10	X11	Y11	Z11	X12	Y12	Z12	X13	Y13	Z13	X14	Y14	Z14	X15	Y15	Z15	X16	Y16	Z16	X17	Y17	Z17	X18	Y18	Z18	X19	Y19	Z19	X20	Y20	Z20	X21	Y21	Z21	X22	Y22	Z22	X23	Y23	Z23	X24	Y24	Z24	X25	Y25	Z25	X26	Y26	Z26	X27	Y27	Z27	
3329	33.28	65.897812	1566.0215	-29.005623	-74.769966	1560.0144	-38.304573	53.325085	1551.8805	-190.22702	-74.96701	1521.9097	-201.05508	9.4732666	1336.6637	-199.57767	-2.4910975	1128.8524	-234.64417	1.4017385	1271.818	-1.5344776	3.2459438	1075.6606	46.322323	-72.087868	1264.4335	-228.73509	129.37526	1343.8057	-114.87298	242.81897	1234.2987	-97.000557	314.08487	1060.2228	-102.76003	394.54596	958.61816	-32.331501	425.05457	890.30273	7.9599462	394.3349	864.66345	-68.706329	486.90057	849.75348	-48.033127	-119.26472	1340.2855	-118.82761	-281.44623	1173.2299	-106.6709	-303.85416	1057.8812	-168.22711	-383.44141	1051.0148	-121.63884	-479.285	925.16559	-85.692253	-443.38861	890.94427	-150.62231	-538.20093	893.45856	-145.66983	124.05494	889.82349	-3.8358266	-143.23535	874.03839	-8.166647	33.326355	945.94733	-221.55351	-56.032848	944.26733	-224.75693
3330	33.29	66.416489	1565.9006	-28.292933	-74.264175	1559.924	-37.650208	53.821556	1551.9327	-189.58443	-74.459961	1521.9958	-200.57176	10.028315	1336.8151	-199.30054	-1.9965556	1128.8792	-234.50282	1.8164979	1271.6097	-1.3525146	3.4956355	1075.4668	46.369213	-71.528717	1264.5302	-228.52422	130.19707	1343.5157	-114.4956	242.57353	1232.4777	-97.444489	311.37299	1057.2683	-104.44489	389.9118	953.51428	-35.046333	419.10489	884.12311	4.4130268	388.18106	860.07379	-72.692039	480.42755	843.27057	-51.888214	-119.06393	1340.1283	-118.48411	-279.98334	1171.3059	-105.05805	-300.34882	1055.637	-167.89023	-379.71942	1046.4559	-121.9061	-472.37454	917.6521	-86.965897	-435.2435	884.98676	-151.85779	-529.65186	884.46173	-147.24142	124.21882	889.74951	-3.730824	-143.04616	874.06311	-8.4291906	33.819328	945.93365	-221.58412	-55.630497	944.24982	-224.79424
3331	33.3	66.92527	1565.7637	-27.663637	-73.73304	1559.8376	-37.01173	54.335365	1551.999	-188.98433	-73.989632	1522.0804	-199.98711	10.577259	1336.942	-198.96153	-1.4960756	1128.9305	-234.53201	2.2498267	1271.434	-1.1747584	3.7763133	1075.3284	46.409172	-71.004105	1264.6394	-228.33286	130.95609	1343.2838	-114.22058	242.37004	1230.9446	-97.863678	308.65466	1054.4209	-106.13963	385.18079	948.54285	-37.859055	413.08771	878.21313	0.78121388	382.02585	855.55432	-76.625069	473.81921	837.05157	-55.899311	-118.82378	1339.9276	-118.23485	-278.37064	1169.2881	-105.61578	-296.88757	1053.4039	-167.60184	-376.04279	1041.8492	-121.64502	-465.21005	910.33856	-88.135498	-426.97241	879.2428	-153.05519	-521.57928	875.95563	-148.49498	124.35735	889.6734	-3.0117841	-142.88841	874.10254	-8.7074728	34.316422	945.97437	-221.57079	-55.135311	944.27386	-224.91837
3332	33.31	67.369164	1565.6149	-27.028881	-73.26136	1559.7002	-36.375118	54.801483	1552.1178	-188.36293	-73.536072	1522.2341	-199.3075	11.01365	1337.0184	-198.58124	-1.0106975	1128.9438	-234.49724	2.6874051	1271.2986	-1.1117524	4.0837231	1075.2026	46.439678	-70.480141	1264.7712	-228.28775	131.67575	1343.1052	-113.95388	242.24338	1229.5282	-98.184929	305.86111	1051.7203	-107.77898	380.39746	943.71692	-40.703156	407.04349	872.56763	-2.9822395	375.6586	851.22632	-80.619698	467.11832	831.00641	-60.101173	-118.61025	1339.7379	-118.0498	-276.75607	1167.224	-104.55578	-293.24063	1051.0928	-167.17252	-372.13425	1037.387	-121.45902	-457.92853	903.17572	-89.008461	-418.76636	873.75732	-154.08533	-512.80402	867.55432	-150.03494	124.59908	889.55536	-3.3013353	-142.71031	874.12402	-8.8140135	34.762661	945.94922	-221.52473	-54.635674	944.27942	-224.98099
